<svg width="199" height="257" viewBox="0 0 199 257" fill="none" xmlns="http://www.w3.org/2000/svg">
<path d="M19.3015 214L23.6349 228.262H37.6583L26.3131 237.076L30.6466 251.338L19.3015 242.524L7.95635 251.338L12.2898 237.076L0.944681 228.262H14.968L19.3015 214Z" fill="#D9D9D9"/>
<path d="M100.368 215.376L104.701 229.638H118.724L107.379 238.452L111.713 252.714L100.368 243.9L89.0225 252.714L93.356 238.452L82.0108 229.638H96.0342L100.368 215.376Z" fill="#D9D9D9"/>
<path d="M138.971 214L143.304 228.262H157.328L145.982 237.076L150.316 251.338L138.971 242.524L127.626 251.338L131.959 237.076L120.614 228.262H134.637L138.971 214Z" fill="#D9D9D9"/>
<path d="M57.9045 214L62.238 228.262H76.2613L64.9162 237.076L69.2496 251.338L57.9045 242.524L46.5594 251.338L50.8928 237.076L39.5477 228.262H53.5711L57.9045 214Z" fill="#D9D9D9"/>
<path d="M177.147 214.283L181.481 228.545H195.504L184.159 237.359L188.492 251.621L177.147 242.807L165.802 251.621L170.136 237.359L158.79 228.545H172.814L177.147 214.283Z" fill="#D9D9D9"/>
<path d="M19.3015 171L23.6349 185.262H37.6583L26.3131 194.076L30.6466 208.338L19.3015 199.524L7.95635 208.338L12.2898 194.076L0.944681 185.262H14.968L19.3015 171Z" fill="#F2F708"/>
<path d="M19.3015 171L23.6349 185.262H37.6583L26.3131 194.076L30.6466 208.338L19.3015 199.524L7.95635 208.338L12.2898 194.076L0.944681 185.262H14.968L19.3015 171Z" fill="#F9E006" fill-opacity="0.39"/>
<path d="M100.368 172.376L104.701 186.638H118.724L107.379 195.452L111.713 209.714L100.368 200.9L89.0225 209.714L93.356 195.452L82.0108 186.638H96.0342L100.368 172.376Z" fill="#D9D9D9"/>
<path d="M138.971 171L143.304 185.262H157.328L145.982 194.076L150.316 208.338L138.971 199.524L127.626 208.338L131.959 194.076L120.614 185.262H134.637L138.971 171Z" fill="#D9D9D9"/>
<path d="M57.9045 171L62.238 185.262H76.2613L64.9162 194.076L69.2496 208.338L57.9045 199.524L46.5594 208.338L50.8928 194.076L39.5477 185.262H53.5711L57.9045 171Z" fill="#D9D9D9"/>
<path d="M177.147 171.283L181.481 185.545H195.504L184.159 194.359L188.492 208.621L177.147 199.807L165.802 208.621L170.136 194.359L158.79 185.545H172.814L177.147 171.283Z" fill="#D9D9D9"/>
<path d="M19.3015 128L23.6349 142.262H37.6583L26.3131 151.076L30.6466 165.338L19.3015 156.524L7.95635 165.338L12.2898 151.076L0.944681 142.262H14.968L19.3015 128Z" fill="#F2F708"/>
<path d="M19.3015 128L23.6349 142.262H37.6583L26.3131 151.076L30.6466 165.338L19.3015 156.524L7.95635 165.338L12.2898 151.076L0.944681 142.262H14.968L19.3015 128Z" fill="#F9E006" fill-opacity="0.39"/>
<path d="M100.368 129.376L104.701 143.638H118.724L107.379 152.452L111.713 166.714L100.368 157.9L89.0225 166.714L93.356 152.452L82.0108 143.638H96.0342L100.368 129.376Z" fill="#D9D9D9"/>
<path d="M138.971 128L143.304 142.262H157.328L145.982 151.076L150.316 165.338L138.971 156.524L127.626 165.338L131.959 151.076L120.614 142.262H134.637L138.971 128Z" fill="#D9D9D9"/>
<path d="M57.9045 128L62.238 142.262H76.2613L64.9162 151.076L69.2496 165.338L57.9045 156.524L46.5594 165.338L50.8928 151.076L39.5477 142.262H53.5711L57.9045 128Z" fill="#F2F708"/>
<path d="M57.9045 128L62.238 142.262H76.2613L64.9162 151.076L69.2496 165.338L57.9045 156.524L46.5594 165.338L50.8928 151.076L39.5477 142.262H53.5711L57.9045 128Z" fill="#F9E006" fill-opacity="0.39"/>
<path d="M177.147 128.283L181.481 142.545H195.504L184.159 151.359L188.492 165.621L177.147 156.807L165.802 165.621L170.136 151.359L158.79 142.545H172.814L177.147 128.283Z" fill="#D9D9D9"/>
<path d="M21.3015 85L25.6349 99.2619H39.6583L28.3131 108.076L32.6466 122.338L21.3015 113.524L9.95635 122.338L14.2898 108.076L2.94468 99.2619H16.968L21.3015 85Z" fill="#F2F708"/>
<path d="M21.3015 85L25.6349 99.2619H39.6583L28.3131 108.076L32.6466 122.338L21.3015 113.524L9.95635 122.338L14.2898 108.076L2.94468 99.2619H16.968L21.3015 85Z" fill="#F9E006" fill-opacity="0.39"/>
<path d="M102.368 86.376L106.701 100.638H120.724L109.379 109.452L113.713 123.714L102.368 114.9L91.0225 123.714L95.356 109.452L84.0108 100.638H98.0342L102.368 86.376Z" fill="#F2F708"/>
<path d="M102.368 86.376L106.701 100.638H120.724L109.379 109.452L113.713 123.714L102.368 114.9L91.0225 123.714L95.356 109.452L84.0108 100.638H98.0342L102.368 86.376Z" fill="#F9E006" fill-opacity="0.39"/>
<path d="M140.971 85L145.304 99.2619H159.328L147.982 108.076L152.316 122.338L140.971 113.524L129.626 122.338L133.959 108.076L122.614 99.2619H136.637L140.971 85Z" fill="#D9D9D9"/>
<path d="M59.9045 85L64.238 99.2619H78.2613L66.9162 108.076L71.2496 122.338L59.9045 113.524L48.5594 122.338L52.8928 108.076L41.5477 99.2619H55.5711L59.9045 85Z" fill="#F2F708"/>
<path d="M59.9045 85L64.238 99.2619H78.2613L66.9162 108.076L71.2496 122.338L59.9045 113.524L48.5594 122.338L52.8928 108.076L41.5477 99.2619H55.5711L59.9045 85Z" fill="#F9E006" fill-opacity="0.39"/>
<path d="M179.147 85.2831L183.481 99.545H197.504L186.159 108.359L190.492 122.621L179.147 113.807L167.802 122.621L172.136 108.359L160.79 99.545H174.814L179.147 85.2831Z" fill="#D9D9D9"/>
<path d="M19.3015 42L23.6349 56.2619H37.6583L26.3131 65.0763L30.6466 79.3382L19.3015 70.5239L7.95635 79.3382L12.2898 65.0763L0.944681 56.2619H14.968L19.3015 42Z" fill="#F2F708"/>
<path d="M19.3015 42L23.6349 56.2619H37.6583L26.3131 65.0763L30.6466 79.3382L19.3015 70.5239L7.95635 79.3382L12.2898 65.0763L0.944681 56.2619H14.968L19.3015 42Z" fill="#F9E006" fill-opacity="0.39"/>
<path d="M100.368 43.376L104.701 57.6379H118.724L107.379 66.4523L111.713 80.7142L100.368 71.8998L89.0225 80.7142L93.356 66.4523L82.0108 57.6379H96.0342L100.368 43.376Z" fill="#F2F708"/>
<path d="M100.368 43.376L104.701 57.6379H118.724L107.379 66.4523L111.713 80.7142L100.368 71.8998L89.0225 80.7142L93.356 66.4523L82.0108 57.6379H96.0342L100.368 43.376Z" fill="#F9E006" fill-opacity="0.39"/>
<path d="M138.971 42L143.304 56.2619H157.328L145.982 65.0763L150.316 79.3382L138.971 70.5239L127.626 79.3382L131.959 65.0763L120.614 56.2619H134.637L138.971 42Z" fill="#F2F708"/>
<path d="M138.971 42L143.304 56.2619H157.328L145.982 65.0763L150.316 79.3382L138.971 70.5239L127.626 79.3382L131.959 65.0763L120.614 56.2619H134.637L138.971 42Z" fill="#F9E006" fill-opacity="0.39"/>
<path d="M57.9045 42L62.238 56.2619H76.2613L64.9162 65.0763L69.2496 79.3382L57.9045 70.5239L46.5594 79.3382L50.8928 65.0763L39.5477 56.2619H53.5711L57.9045 42Z" fill="#F2F708"/>
<path d="M57.9045 42L62.238 56.2619H76.2613L64.9162 65.0763L69.2496 79.3382L57.9045 70.5239L46.5594 79.3382L50.8928 65.0763L39.5477 56.2619H53.5711L57.9045 42Z" fill="#F9E006" fill-opacity="0.39"/>
<path d="M177.147 42.2831L181.481 56.545H195.504L184.159 65.3594L188.492 79.6213L177.147 70.8069L165.802 79.6213L170.136 65.3594L158.79 56.545H172.814L177.147 42.2831Z" fill="#D9D9D9"/>
<path d="M19.3015 0.849121L23.6349 15.1111H37.6583L26.3131 23.9254L30.6466 38.1873L19.3015 29.373L7.95635 38.1873L12.2898 23.9254L0.944681 15.1111H14.968L19.3015 0.849121Z" fill="#F2F708"/>
<path d="M19.3015 0.849121L23.6349 15.1111H37.6583L26.3131 23.9254L30.6466 38.1873L19.3015 29.373L7.95635 38.1873L12.2898 23.9254L0.944681 15.1111H14.968L19.3015 0.849121Z" fill="#F9E006" fill-opacity="0.39"/>
<path d="M100.368 2.2251L104.701 16.487H118.724L107.379 25.3014L111.713 39.5633L100.368 30.749L89.0225 39.5633L93.356 25.3014L82.0108 16.487H96.0342L100.368 2.2251Z" fill="#F2F708"/>
<path d="M100.368 2.2251L104.701 16.487H118.724L107.379 25.3014L111.713 39.5633L100.368 30.749L89.0225 39.5633L93.356 25.3014L82.0108 16.487H96.0342L100.368 2.2251Z" fill="#F9E006" fill-opacity="0.39"/>
<path d="M138.971 0.849121L143.304 15.1111H157.328L145.982 23.9254L150.316 38.1873L138.971 29.373L127.626 38.1873L131.959 23.9254L120.614 15.1111H134.637L138.971 0.849121Z" fill="#F2F708"/>
<path d="M138.971 0.849121L143.304 15.1111H157.328L145.982 23.9254L150.316 38.1873L138.971 29.373L127.626 38.1873L131.959 23.9254L120.614 15.1111H134.637L138.971 0.849121Z" fill="#F9E006" fill-opacity="0.39"/>
<path d="M57.9045 0.849121L62.238 15.1111H76.2613L64.9162 23.9254L69.2496 38.1873L57.9045 29.373L46.5594 38.1873L50.8928 23.9254L39.5477 15.1111H53.5711L57.9045 0.849121Z" fill="#F2F708"/>
<path d="M57.9045 0.849121L62.238 15.1111H76.2613L64.9162 23.9254L69.2496 38.1873L57.9045 29.373L46.5594 38.1873L50.8928 23.9254L39.5477 15.1111H53.5711L57.9045 0.849121Z" fill="#F9E006" fill-opacity="0.39"/>
<path d="M177.147 1.1322L181.481 15.3941H195.504L184.159 24.2085L188.492 38.4704L177.147 29.6561L165.802 38.4704L170.136 24.2085L158.79 15.3941H172.814L177.147 1.1322Z" fill="#F2F708"/>
<path d="M177.147 1.1322L181.481 15.3941H195.504L184.159 24.2085L188.492 38.4704L177.147 29.6561L165.802 38.4704L170.136 24.2085L158.79 15.3941H172.814L177.147 1.1322Z" fill="#F9E006" fill-opacity="0.39"/>
</svg>
