<svg width="19" height="25" viewBox="0 0 19 25" fill="none" xmlns="http://www.w3.org/2000/svg">
<path d="M16.9776 2.77778H12.757C12.5417 1.21103 11.1951 0 9.57017 0C7.94525 0 6.59853 1.21103 6.3833 2.77778H2.07858C1.24314 2.77778 0.5354 3.45749 0.5354 4.29293V23.4848C0.5354 24.3203 1.24314 25 2.07858 25H16.9776C17.813 25 18.4647 24.3203 18.4647 23.4848V4.29293C18.4647 3.45749 17.813 2.77778 16.9776 2.77778ZM4.83271 4.0404C5.1216 5.55833 6.4391 6.64983 8.0391 6.64983H11.1013C12.7013 6.64983 14.0188 5.55833 14.3077 4.0404H15.7711V22.2222H3.31318V4.0404H4.83271ZM9.57017 1.3468C10.4503 1.3468 11.1899 1.95783 11.3884 2.77778H7.75198C7.95047 1.95783 8.69003 1.3468 9.57017 1.3468Z" fill="white"/>
<path d="M9.54227 9.17505H5.3335V10.4377H9.54227V9.17505Z" fill="white"/>
<path d="M13.8929 8.84478L12.9633 7.99023L11.7665 9.29209L11.2455 8.86759L10.448 9.84646L11.8911 11.0222L13.8929 8.84478Z" fill="white"/>
<path d="M9.54227 13.2156H5.3335V14.4782H9.54227V13.2156Z" fill="white"/>
<path d="M13.8929 12.8851L12.9633 12.0305L11.7665 13.3324L11.2455 12.9079L10.448 13.8867L11.8911 15.0625L13.8929 12.8851Z" fill="white"/>
<path d="M9.54227 17.2559H5.3335V18.5185H9.54227V17.2559Z" fill="white"/>
<path d="M13.8929 16.9256L12.9633 16.071L11.7665 17.3729L11.2455 16.9484L10.448 17.9273L11.8911 19.103L13.8929 16.9256Z" fill="white"/>
</svg>
