<svg width="25" height="25" viewBox="0 0 25 25" fill="none" xmlns="http://www.w3.org/2000/svg">
<path d="M12.5 0.25C5.675 0.25 0.25 5.675 0.25 12.5C0.25 19.325 5.675 24.75 12.5 24.75C19.325 24.75 24.75 19.325 24.75 12.5C24.75 5.675 19.325 0.25 12.5 0.25ZM12.5 5.15C14.425 5.15 16 6.725 16 8.65C16 10.575 14.425 12.15 12.5 12.15C10.575 12.15 9 10.575 9 8.65C9 6.725 10.575 5.15 12.5 5.15ZM20.025 19.325C18.1 21.25 15.475 22.65 12.5 22.65C9.525 22.65 6.9 21.425 4.975 19.325C4.45 18.8 4.45 17.925 4.975 17.4C6.9 15.3 9.525 13.9 12.5 13.9C15.475 13.9 18.1 15.3 20.025 17.4C20.55 17.925 20.55 18.8 20.025 19.325Z" fill="white"/>
</svg>
