<?xml version="1.0" encoding="UTF-8" standalone="no" ?>
<!DOCTYPE svg PUBLIC "-//W3C//DTD SVG 1.1//EN" "http://www.w3.org/Graphics/SVG/1.1/DTD/svg11.dtd">
<svg xmlns="http://www.w3.org/2000/svg" xmlns:xlink="http://www.w3.org/1999/xlink" version="1.1" width="500" height="500" viewBox="0 0 500 500" xml:space="preserve">
<desc>Created with Fabric.js 4.6.0</desc>
<defs>
</defs>
<g transform="matrix(19.63 0 0 19.63 248.96 248.95)" id="nZg035slFiuGkkcJIiGex"  >
<path style="stroke: none; stroke-width: 1; stroke-dasharray: none; stroke-linecap: butt; stroke-dashoffset: 0; stroke-linejoin: miter; stroke-miterlimit: 4; fill: rgb(249,178,178); fill-rule: nonzero; opacity: 1;" vector-effect="non-scaling-stroke"  transform=" translate(-12.68, -12.68)" d="M 23.862 0 L 1.5 0 C 0.672 0 0 0.673 0 1.5 L 0 23.86 C 0 24.686999999999998 0.672 25.36 1.5 25.36 L 23.861 25.36 C 24.689 25.36 25.361 24.686999999999998 25.361 23.86 L 25.361 1.5 C 25.362 0.673 24.689 0 23.862 0 z M 22.362 22.363 L 3 22.363 L 3 3 L 22.361 3 L 22.362 22.363 L 22.362 22.363 z M 4.555 12.682 C 4.555 11.853 5.226999999999999 11.182 6.055 11.182 L 11.18 11.182 L 11.18 6.057 C 11.18 5.229 11.852 4.557 12.68 4.557 C 13.508 4.557 14.18 5.229 14.18 6.057 L 14.18 11.182 L 19.305 11.182 C 20.133 11.182 20.805 11.854000000000001 20.805 12.682 C 20.805 13.51 20.133 14.182 19.305 14.182 L 14.18 14.182 L 14.18 19.307000000000002 C 14.18 20.135 13.508 20.807000000000002 12.68 20.807000000000002 C 11.852 20.807000000000002 11.18 20.135 11.18 19.307000000000002 L 11.18 14.182000000000002 L 6.055 14.182000000000002 C 5.227 14.182 4.555 13.51 4.555 12.682 z" stroke-linecap="round" />
</g>
</svg>